<svg width="176" height="176" viewBox="0 0 176 176" fill="none" xmlns="http://www.w3.org/2000/svg">
<path fill-rule="evenodd" clip-rule="evenodd" d="M129.468 65.1388L81.2932 113.314L51.8682 83.8888L60.7182 75.0513L81.2932 95.6263L120.618 56.3013L129.468 65.1388Z" fill="#2ED843"/>
<path fill-rule="evenodd" clip-rule="evenodd" d="M87.5428 12.5513C74.6554 12.5488 61.9849 15.8671 50.7531 22.1863C39.5213 28.5054 30.1074 37.6121 23.4191 48.6281C16.7309 59.6441 12.9941 72.1976 12.5691 85.078C12.1441 97.9583 15.0453 110.731 20.9928 122.164L9.9053 127.939C0.667358 110.213 -2.223 89.8582 1.71507 70.2612C5.65315 50.6643 16.1822 33.0064 31.5507 20.2251C46.9192 7.44387 66.2005 0.309846 86.187 0.00986141C106.173 -0.290123 125.66 6.26202 141.405 18.5763L149.555 24.9513L100.043 47.2263V13.6013C95.9128 12.9028 91.7315 12.5516 87.5428 12.5513ZM154.83 54.3763C153.38 51.443 151.739 48.6077 149.918 45.8888L160.305 38.9388C162.43 42.1054 164.339 45.4054 166.03 48.8388C174.863 66.7186 177.323 87.0793 173.003 106.548C168.682 126.017 157.841 143.426 142.275 155.892C126.708 168.358 107.351 175.132 87.4083 175.093C67.4658 175.053 48.135 168.203 32.6178 155.676L23.8303 148.589L81.2928 128.801V162.301C83.3595 162.468 85.4428 162.551 87.5428 162.551C100.294 162.555 112.837 159.308 123.984 153.116C135.132 146.924 144.516 137.993 151.251 127.165C157.987 116.337 161.85 103.971 162.476 91.2345C163.102 78.4982 160.471 65.8126 154.83 54.3763Z" fill="#2ED843"/>
</svg>
