<svg width="90" height="90" viewBox="0 0 90 90" fill="none" xmlns="http://www.w3.org/2000/svg">
<path d="M24.066 65.5201C24.6349 66.1098 24.9495 66.8993 24.942 67.7187C24.9345 68.538 24.6055 69.3217 24.0258 69.9008C23.4462 70.4799 22.6622 70.8082 21.8428 70.8149C21.0235 70.8217 20.2342 70.5063 19.6451 69.9368L24.066 65.5201ZM69.941 19.6368C70.248 19.9229 70.4942 20.2679 70.665 20.6512C70.8358 21.0346 70.9277 21.4484 70.9351 21.868C70.9425 22.2875 70.8653 22.7043 70.7081 23.0935C70.551 23.4826 70.317 23.836 70.0203 24.1328C69.7235 24.4295 69.3701 24.6635 68.981 24.8206C68.5918 24.9778 68.175 25.055 67.7554 25.0476C67.3359 25.0402 66.9221 24.9484 66.5387 24.7775C66.1554 24.6068 65.8104 24.3605 65.5243 24.0535L69.941 19.6368ZM13.3535 70.1076L19.4743 76.2243L15.0576 80.641L8.9368 74.5285L13.3535 70.1076ZM76.2326 19.466L70.116 13.3493L74.5326 8.93263L80.6535 15.0451L76.2326 19.466ZM76.2326 27.2826C77.7368 25.7785 78.641 24.866 79.2035 24.1285C79.3656 23.9285 79.504 23.7103 79.616 23.4785C79.6493 23.3951 79.6451 23.3785 79.6451 23.3743H85.8951C85.8951 25.2285 85.1035 26.6951 84.1743 27.916C83.2951 29.0701 82.0326 30.3243 80.6535 31.7035L76.2326 27.2826ZM80.6493 15.0451C82.0326 16.4243 83.2951 17.6785 84.1743 18.8285C85.1035 20.0535 85.8951 21.5201 85.8951 23.3743H79.6451C79.6451 23.3743 79.6451 23.3535 79.616 23.2701C79.504 23.0383 79.3656 22.8201 79.2035 22.6201C78.641 21.8826 77.7368 20.9701 76.2326 19.466L80.6493 15.0451ZM19.4743 76.2243C20.9785 77.7285 21.8951 78.6326 22.6326 79.1951C22.8326 79.3573 23.0508 79.4957 23.2826 79.6076C23.366 79.641 23.3826 79.6368 23.3868 79.6368V85.8868C21.5326 85.8868 20.066 85.0951 18.8451 84.166C17.691 83.2868 16.4368 82.0243 15.0576 80.6451L19.4743 76.2243ZM31.716 80.641C30.3368 82.0243 29.0826 83.2868 27.9326 84.166C26.7076 85.0951 25.241 85.8868 23.3868 85.8868V79.6368C23.3868 79.6368 23.4076 79.6368 23.491 79.6076C23.7228 79.4957 23.941 79.3573 24.141 79.1951C24.8785 78.6326 25.791 77.7285 27.2951 76.2243L31.716 80.641ZM13.3618 62.291C11.8576 63.7951 10.9535 64.7076 10.391 65.4451C10.2288 65.6451 10.0904 65.8633 9.97846 66.0951C9.94513 66.1785 9.9493 66.1951 9.9493 66.1993H3.6993C3.6993 64.3451 4.49096 62.8785 5.42013 61.6576C6.2993 60.5035 7.5618 59.2535 8.94096 57.8701L13.3618 62.291ZM8.94513 74.5285C7.5618 73.1451 6.2993 71.8951 5.42013 70.7451C4.49096 69.5201 3.6993 68.0535 3.6993 66.1993H9.9493C9.9493 66.1993 9.9493 66.2201 9.97846 66.3035C10.0956 66.5324 10.2337 66.75 10.391 66.9535C10.9535 67.691 11.8576 68.6035 13.3618 70.1076L8.94513 74.5285ZM57.8785 8.92846C59.2618 7.5493 60.5118 6.2868 61.6618 5.40763C62.8868 4.47846 64.3535 3.6868 66.2076 3.6868V9.9368C66.2076 9.9368 66.1868 9.9368 66.1035 9.96596C65.8716 10.0779 65.6535 10.2163 65.4535 10.3785C64.716 10.941 63.8035 11.8451 62.2993 13.3493L57.8785 8.92846ZM70.116 13.3493C68.6118 11.8493 67.6993 10.941 66.9618 10.3785C66.7618 10.2163 66.5437 10.0779 66.3118 9.96596C66.2285 9.93263 66.2118 9.9368 66.2076 9.9368V3.6868C68.0618 3.6868 69.5285 4.47846 70.7493 5.40763C71.9035 6.2868 73.1576 7.5493 74.5368 8.92846L70.116 13.3493ZM34.7701 76.2285L37.8285 79.2868L33.4118 83.7076L30.3493 80.6451L34.7701 76.2285ZM48.7035 79.2868C50.1743 77.8201 51.1243 76.8618 51.7868 76.0701C52.416 75.3118 52.5743 74.941 52.6326 74.716L58.6701 76.341C58.2785 77.7993 57.4951 78.9826 56.5868 80.0743C55.7035 81.1326 54.5118 82.3201 53.1243 83.7076L48.7035 79.2868ZM53.1201 63.9951C54.5118 65.3826 55.7035 66.5701 56.5868 67.6285C57.4951 68.7201 58.2785 69.9035 58.6701 71.3618L52.6326 72.9785C52.5743 72.7576 52.416 72.3868 51.7868 71.6326C51.1243 70.841 50.1743 69.8826 48.7035 68.4118L53.1201 63.9951ZM52.6326 74.716C52.787 74.1457 52.787 73.5488 52.6326 72.9785L58.6701 71.3618C59.1076 72.991 59.1076 74.7076 58.6701 76.341L52.6326 74.716ZM53.1285 83.7035C51.7368 85.091 50.5493 86.2868 49.491 87.166C48.3993 88.0785 47.216 88.8618 45.7576 89.2493L44.141 83.216C44.3618 83.1535 44.7326 82.9993 45.491 82.366C46.2826 81.7076 47.241 80.7535 48.7076 79.2826L53.1285 83.7035ZM37.8326 79.2868C39.3035 80.7535 40.2576 81.7035 41.0493 82.3701C41.8076 82.9951 42.1785 83.1535 42.3993 83.216L40.7826 89.2493C39.3243 88.8618 38.141 88.0785 37.0493 87.166C35.9868 86.2826 34.7993 85.0951 33.4118 83.7076L37.8326 79.2868ZM45.7576 89.2493C44.1282 89.6872 42.412 89.6872 40.7826 89.2493L42.3993 83.216C42.9696 83.3703 43.5707 83.3703 44.141 83.216L45.7576 89.2493ZM10.2951 40.8785C9.22367 41.9079 8.19502 42.9811 7.2118 44.0951C6.5868 44.8535 6.42846 45.2243 6.37013 45.4451L0.328463 43.8285C0.72013 42.3701 1.50346 41.1868 2.4118 40.0951C3.2993 39.0368 4.49096 37.8451 5.87846 36.4576L10.2951 40.8785ZM5.87846 56.1701C4.49096 54.7826 3.29513 53.5993 2.41596 52.5368C1.50346 51.4451 0.72013 50.2618 0.33263 48.8035L6.37013 47.1868C6.42846 47.4076 6.58263 47.7785 7.21596 48.5368C7.8743 49.3285 8.82846 50.2868 10.2993 51.7535L5.87846 56.1701ZM6.37013 45.4451C6.21578 46.0154 6.21578 46.6165 6.37013 47.1868L0.328463 48.8035C-0.109488 47.174 -0.109488 45.4579 0.328463 43.8285L6.37013 45.4451ZM5.87846 36.4576C7.26596 35.0701 8.45346 33.8785 9.5118 32.9993C10.6035 32.0826 11.7868 31.3035 13.2451 30.916L14.866 36.9493C14.6451 37.0076 14.2743 37.166 13.516 37.7951C12.7243 38.4576 11.7618 39.4076 10.2951 40.8785L5.87846 36.4576ZM21.1701 40.8785C20.1407 39.807 19.0675 38.7783 17.9535 37.7951C17.1993 37.166 16.8285 37.0076 16.6076 36.9493L18.2243 30.9118C19.6826 31.3035 20.866 32.0868 21.9576 32.9951C23.016 33.8785 24.2035 35.0701 25.591 36.4576L21.1701 40.8785ZM13.2493 30.9118C14.88 30.4731 16.5936 30.4731 18.2243 30.9118L16.6076 36.9493C16.0373 36.7949 15.4363 36.7949 14.866 36.9493L13.2493 30.9118ZM80.6576 30.341L83.716 33.3993L79.2993 37.816L76.2368 34.7576L80.6576 30.341ZM83.7118 53.1201C82.3243 54.5076 81.1368 55.6993 80.0785 56.5785C78.9868 57.4951 77.8035 58.2743 76.3451 58.6618L74.7243 52.6285C74.9451 52.5701 75.316 52.4118 76.0743 51.7826C76.866 51.1201 77.8243 50.1701 79.291 48.6993L83.7118 53.1201ZM68.4201 48.6993C69.8868 50.1701 70.8451 51.1201 71.6368 51.7826C72.391 52.4118 72.7618 52.5701 72.9826 52.6285L71.366 58.666C69.9076 58.2743 68.7243 57.491 67.6326 56.5826C66.5743 55.6993 65.3868 54.5076 63.9993 53.1201L68.4201 48.6993ZM76.341 58.666C74.7115 59.1039 72.9954 59.1039 71.366 58.666L72.9826 52.6285C73.5529 52.7828 74.154 52.7828 74.7243 52.6285L76.341 58.666ZM79.291 48.6993C80.7618 47.2285 81.716 46.2701 82.3743 45.4826C83.0076 44.7243 83.166 44.3535 83.2243 44.1326L89.2576 45.7493C88.8701 47.2076 88.0868 48.391 87.1743 49.4826C86.291 50.541 85.0993 51.7326 83.7118 53.1201L79.291 48.6993ZM83.7118 33.4076C85.0993 34.7951 86.2951 35.9785 87.1743 37.041C88.0868 38.1326 88.8701 39.316 89.2576 40.7743L83.2243 42.391C83.1618 42.1701 83.0076 41.7993 82.3743 41.041C81.716 40.2493 80.7618 39.291 79.291 37.8243L83.7118 33.4076ZM83.2243 44.1326C83.3786 43.5623 83.3786 42.9613 83.2243 42.391L89.2576 40.7743C89.6951 42.4035 89.6951 44.1201 89.2576 45.7493L83.2243 44.1326ZM36.4618 5.87013C37.8535 4.48263 39.041 3.2868 40.0993 2.40763C41.191 1.49513 42.3743 0.711796 43.8326 0.324296L45.4493 6.3618C45.2285 6.42013 44.8576 6.5743 44.0993 7.20763C43.3076 7.86596 42.3493 8.82013 40.8826 10.291L36.4618 5.87013ZM51.7576 10.2868C50.7281 9.21533 49.655 8.18669 48.541 7.20346C47.7826 6.57846 47.4118 6.42013 47.191 6.3618L48.8076 0.320129C50.266 0.711796 51.4493 1.49513 52.541 2.40346C53.6035 3.29096 54.791 4.48263 56.1785 5.87013L51.7576 10.2868ZM43.8368 0.328463C45.4662 -0.109488 47.1824 -0.109488 48.8118 0.328463L47.1951 6.3618C46.6248 6.20745 46.0238 6.21161 45.4535 6.36596L43.8368 0.328463ZM40.8868 10.2951C39.416 11.7618 38.466 12.7201 37.8035 13.5118C37.1743 14.2701 37.016 14.6368 36.9576 14.8618L30.9201 13.2368C31.3118 11.7785 32.0951 10.5951 33.0035 9.50346C33.8868 8.44513 35.0785 7.25763 36.466 5.87013L40.8868 10.2951ZM36.4701 25.5868C35.0785 24.1993 33.8868 23.0118 33.0035 21.9535C32.0951 20.8618 31.3118 19.6785 30.9201 18.2201L36.9576 16.5993C37.016 16.8201 37.1743 17.1951 37.8035 17.9493C38.466 18.741 39.416 19.6993 40.8868 21.1701L36.4701 25.5868ZM36.9576 14.8618C36.8033 15.4321 36.8033 16.029 36.9576 16.5993L30.9201 18.2201C30.4814 16.5894 30.4814 14.8675 30.9201 13.2368L36.9576 14.8618ZM10.2993 51.7535L24.0576 65.5201L19.641 69.9368L5.8743 56.1743L10.2993 51.7535ZM56.1785 5.87013L69.941 19.6368L65.5243 24.0535L51.7618 10.2868L56.1785 5.87013ZM48.7035 68.4118L44.116 63.8201L48.5326 59.4035L53.1243 63.9868L48.7035 68.4118ZM44.116 59.3993L59.4076 44.1076L63.8285 48.5243L48.5368 63.8201L44.116 59.3993ZM63.9993 53.1201L59.4076 48.5285L63.8285 44.1118L68.4201 48.6993L63.9993 53.1201ZM44.116 63.8285L25.7618 45.4701L30.1785 41.0535L48.5326 59.4035L44.116 63.8285ZM25.7618 45.4701L21.1701 40.8785L25.5868 36.4618L30.1785 41.0451L25.7618 45.4701ZM45.4743 30.1785L30.1826 45.4701L25.7618 41.0535L41.0535 25.7576L45.4743 30.1785ZM59.4118 48.5285L41.0576 30.1785L45.4743 25.7576L63.8285 44.1118L59.4118 48.5285ZM41.0576 30.1785L36.4618 25.5785L40.8826 21.1618L45.4701 25.7451L41.0576 30.1785ZM76.2326 34.7618C75.2429 33.7698 74.687 32.4256 74.687 31.0243C74.687 29.6229 75.2429 28.2788 76.2326 27.2868L80.6493 31.7035C80.7387 31.6144 80.8097 31.5086 80.8581 31.392C80.9066 31.2755 80.9315 31.1505 80.9315 31.0243C80.9315 30.8981 80.9066 30.7731 80.8581 30.6566C80.8097 30.54 80.7387 30.4342 80.6493 30.3451L76.2326 34.7618ZM30.3493 80.6451C30.7243 81.0201 31.3326 81.0243 31.7118 80.6493L27.291 76.2326C28.2832 75.2416 29.6282 74.6849 31.0305 74.6849C32.4329 74.6849 33.7779 75.2416 34.7701 76.2326L30.3493 80.6451Z" fill="#2ED843"/>
</svg>
