<svg width="94" height="94" viewBox="0 0 94 94" fill="none" xmlns="http://www.w3.org/2000/svg">
<path d="M17.5071 75.9786L0.5 80.5286L16.2429 53.2571L35.7286 69.3214L22.0714 92.9786L17.5071 75.9786ZM76.3429 75.9786L93.3571 80.5357L77.6143 53.2643L58.1286 69.3286L71.7857 92.9857L76.3429 75.9786Z" fill="#FFEF5E"/>
<path d="M77.7142 53.4357L93.3571 80.5357L76.3428 75.9786L71.7857 92.9857L58.2285 69.4929" stroke="#4147D5" stroke-linecap="round" stroke-linejoin="round"/>
<path d="M82.3078 35.9C82.3078 45.2887 78.5782 54.2928 71.9394 60.9316C65.3006 67.5704 56.2965 71.3 46.9078 71.3C37.5191 71.3 28.515 67.5704 21.8762 60.9316C15.2374 54.2928 11.5078 45.2887 11.5078 35.9C11.5078 26.5113 15.2374 17.5072 21.8762 10.8684C28.515 4.22963 37.5191 0.5 46.9078 0.5C56.2965 0.5 65.3006 4.22963 71.9394 10.8684C78.5782 17.5072 82.3078 26.5113 82.3078 35.9Z" fill="#FFEF5E"/>
<path d="M82.3078 35.9C82.3078 45.2887 78.5782 54.2928 71.9394 60.9316C65.3006 67.5704 56.2965 71.3 46.9078 71.3C37.5192 71.3 28.515 67.5704 21.8762 60.9316C15.2374 54.2928 11.5078 45.2887 11.5078 35.9C11.5078 26.5113 15.2374 17.5072 21.8762 10.8684C28.515 4.22963 37.5192 0.5 46.9078 0.5C56.2965 0.5 65.3006 4.22963 71.9394 10.8684C78.5782 17.5072 82.3078 26.5113 82.3078 35.9Z" stroke="#4147D5" stroke-linecap="round" stroke-linejoin="round"/>
<path d="M48.3572 16.6786L53.2358 26.4929C53.3417 26.7422 53.5132 26.9582 53.732 27.1179C53.9509 27.2777 54.2089 27.3751 54.4787 27.4L65.3144 29.0429C65.6245 29.0825 65.9168 29.2098 66.1571 29.4098C66.3973 29.6098 66.5755 29.8741 66.6708 30.1719C66.766 30.4696 66.7744 30.7884 66.6948 31.0907C66.6152 31.393 66.451 31.6663 66.2215 31.8786L58.2144 39.4714C58.0931 39.699 58.0296 39.9529 58.0296 40.2107C58.0296 40.4686 58.0931 40.7225 58.2144 40.95L59.7501 51.7214C59.8167 52.0336 59.791 52.3584 59.676 52.6561C59.5611 52.9539 59.3619 53.2117 59.1027 53.3981C58.8436 53.5845 58.5358 53.6914 58.217 53.7057C57.8981 53.7199 57.582 53.641 57.3072 53.4786L47.6644 48.3786C47.4152 48.2662 47.1449 48.2081 46.8715 48.2081C46.5981 48.2081 46.3279 48.2662 46.0787 48.3786L36.4358 53.4786C36.1613 53.6367 35.847 53.712 35.5306 53.6956C35.2143 53.6792 34.9095 53.5716 34.6529 53.3859C34.3962 53.2003 34.1987 52.9444 34.0842 52.649C33.9696 52.3537 33.9429 52.0316 34.0072 51.7214L35.8215 40.95C35.9015 40.6993 35.9172 40.4326 35.8673 40.1743C35.8174 39.9159 35.7034 39.6743 35.5358 39.4714L27.5358 31.8214C27.321 31.6066 27.17 31.3364 27.0995 31.0409C27.029 30.7454 27.0419 30.4362 27.1366 30.1475C27.2313 29.8589 27.4043 29.6022 27.6361 29.4059C27.868 29.2096 28.1498 29.0815 28.4501 29.0357L39.2858 27.4571C39.5556 27.4323 39.8136 27.3348 40.0324 27.1751C40.2512 27.0154 40.4227 26.7993 40.5287 26.55L45.4072 16.7429C45.5371 16.4643 45.7425 16.2278 46.0001 16.0601C46.2577 15.8925 46.5571 15.8004 46.8644 15.7945C47.1717 15.7885 47.4745 15.8689 47.7384 16.0264C48.0023 16.184 48.2167 16.4124 48.3572 16.6857V16.6786Z" fill="#FFEF5E"/>
<path d="M16.1571 53.4143L0.5 80.5286L17.5071 75.9714L22.0714 92.9857L35.6429 69.4714M48.3571 16.6786L53.2357 26.4929C53.3416 26.7422 53.5131 26.9582 53.732 27.1179C53.9508 27.2777 54.2088 27.3751 54.4786 27.4L65.3143 29.0429C65.6244 29.0825 65.9167 29.2098 66.157 29.4098C66.3972 29.6098 66.5755 29.8741 66.6707 30.1719C66.766 30.4696 66.7743 30.7884 66.6947 31.0907C66.6151 31.393 66.4509 31.6663 66.2214 31.8786L58.2143 39.4714C58.093 39.699 58.0295 39.9529 58.0295 40.2107C58.0295 40.4686 58.093 40.7225 58.2143 40.95L59.75 51.7214C59.8166 52.0336 59.7909 52.3584 59.676 52.6562C59.561 52.9539 59.3618 53.2117 59.1027 53.3981C58.8435 53.5845 58.5357 53.6914 58.2169 53.7057C57.898 53.7199 57.5819 53.641 57.3071 53.4786L47.6643 48.3786C47.4151 48.2662 47.1448 48.2081 46.8714 48.2081C46.598 48.2081 46.3278 48.2662 46.0786 48.3786L36.4357 53.4786C36.1612 53.6367 35.8469 53.712 35.5306 53.6956C35.2142 53.6792 34.9094 53.5716 34.6528 53.3859C34.3961 53.2003 34.1987 52.9444 34.0841 52.649C33.9696 52.3537 33.9428 52.0316 34.0071 51.7214L35.8214 40.95C35.9014 40.6993 35.9171 40.4326 35.8672 40.1743C35.8173 39.9159 35.7033 39.6743 35.5357 39.4714L27.5357 31.8214C27.3209 31.6066 27.1699 31.3364 27.0994 31.0409C27.0289 30.7454 27.0418 30.4362 27.1365 30.1475C27.2313 29.8589 27.4042 29.6022 27.636 29.4059C27.8679 29.2096 28.1497 29.0815 28.45 29.0357L39.2857 27.4571C39.5555 27.4323 39.8135 27.3348 40.0323 27.1751C40.2512 27.0154 40.4226 26.7993 40.5286 26.55L45.4071 16.7429C45.537 16.4643 45.7424 16.2278 46 16.0601C46.2576 15.8925 46.557 15.8004 46.8643 15.7945C47.1716 15.7885 47.4744 15.8689 47.7383 16.0264C48.0022 16.184 48.2166 16.4124 48.3571 16.6857V16.6786Z" stroke="#4147D5" stroke-linecap="round" stroke-linejoin="round"/>
</svg>
