<svg width="100" height="100" viewBox="0 0 100 100" fill="none" xmlns="http://www.w3.org/2000/svg">
<path d="M45.0583 8.64166C45.6517 7.90137 46.4039 7.30386 47.2592 6.89327C48.1146 6.48269 49.0512 6.26952 50 6.26952C50.9488 6.26952 51.8854 6.48269 52.7408 6.89327C53.5961 7.30386 54.3483 7.90137 54.9417 8.64166L60.8167 15.9542C61.4836 16.7829 62.3485 17.4303 63.3316 17.8367C64.3147 18.243 65.3843 18.3952 66.4417 18.2792L75.7625 17.2667C76.704 17.1651 77.6563 17.276 78.5493 17.5912C79.4423 17.9064 80.2533 18.4178 80.9225 19.0878C81.5917 19.7578 82.1022 20.5694 82.4163 21.4628C82.7304 22.3562 82.8401 23.3086 82.7375 24.25L81.7208 33.5667C81.6058 34.6248 81.7592 35.6949 82.1671 36.678C82.5749 37.6612 83.2239 38.5257 84.0542 39.1917L91.3583 45.0625C92.0986 45.6559 92.6961 46.4081 93.1067 47.2634C93.5173 48.1187 93.7305 49.0554 93.7305 50.0042C93.7305 50.9529 93.5173 51.8896 93.1067 52.7449C92.6961 53.6003 92.0986 54.3524 91.3583 54.9458L84.05 60.8208C83.2204 61.4864 82.5717 62.3503 82.1639 63.3326C81.7561 64.315 81.6023 65.3842 81.7167 66.4417L82.7375 75.7625C82.8381 76.704 82.7266 77.6561 82.4112 78.5489C82.0957 79.4417 81.5844 80.2525 80.9146 80.9219C80.2449 81.5912 79.4338 82.1021 78.5408 82.417C77.6478 82.7319 76.6956 82.8428 75.7542 82.7417L66.4333 81.7292C65.3756 81.6136 64.3057 81.7664 63.3226 82.1735C62.3395 82.5806 61.4748 83.2288 60.8083 84.0583L54.9417 91.3583C54.3492 92.1 53.5973 92.6988 52.7418 93.1103C51.8864 93.5218 50.9493 93.7355 50 93.7355C49.0507 93.7355 48.1136 93.5218 47.2582 93.1103C46.4027 92.6988 45.6508 92.1 45.0583 91.3583L39.1917 84.05C38.5257 83.2197 37.6612 82.5707 36.678 82.1629C35.6949 81.7551 34.6248 81.6016 33.5667 81.7167L24.2458 82.7333C23.3044 82.8354 22.352 82.7251 21.4588 82.4104C20.5656 82.0958 19.7544 81.5849 19.0848 80.9153C18.4151 80.2456 17.9042 79.4344 17.5896 78.5412C17.2749 77.648 17.1646 76.6956 17.2667 75.7542L18.2792 66.4333C18.394 65.3762 18.2408 64.3072 17.8338 63.3249C17.4267 62.3426 16.7789 61.4786 15.95 60.8125L8.64167 54.9458C7.90138 54.3524 7.30387 53.6003 6.89328 52.7449C6.4827 51.8896 6.26953 50.9529 6.26953 50.0042C6.26953 49.0554 6.4827 48.1187 6.89328 47.2634C7.30387 46.4081 7.90138 45.6559 8.64167 45.0625L15.95 39.1917C16.7803 38.5257 17.4293 37.6612 17.8371 36.678C18.2449 35.6949 18.3984 34.6248 18.2833 33.5667L17.2625 24.25C17.1597 23.3082 17.2696 22.3554 17.5839 21.4617C17.8983 20.5679 18.4091 19.7561 19.0788 19.086C19.7485 18.4159 20.56 17.9046 21.4535 17.5897C22.347 17.2749 23.2998 17.1645 24.2417 17.2667L33.5625 18.2792C34.6199 18.3952 35.6895 18.243 36.6726 17.8367C37.6557 17.4303 38.5206 16.7829 39.1875 15.9542L45.0583 8.64166Z" fill="#FFEF5E"/>
<path d="M19.0833 80.9167C18.4138 80.2468 17.903 79.4352 17.5886 78.5418C17.2742 77.6483 17.1642 76.6957 17.2667 75.7542L18.2792 66.4333C18.394 65.3762 18.2408 64.3072 17.8338 63.3249C17.4267 62.3426 16.7789 61.4785 15.95 60.8125L8.64167 54.9458C7.90138 54.3524 7.30387 53.6003 6.89328 52.7449C6.4827 51.8896 6.26953 50.9529 6.26953 50.0042C6.26953 49.0554 6.4827 48.1187 6.89328 47.2634C7.30387 46.4081 7.90138 45.6559 8.64167 45.0625L15.95 39.1917C16.7803 38.5257 17.4293 37.6612 17.8371 36.678C18.2449 35.6949 18.3984 34.6248 18.2833 33.5667L17.2625 24.25C17.1597 23.3082 17.2696 22.3554 17.5839 21.4616C17.8983 20.5679 18.4091 19.7561 19.0788 19.086C19.7485 18.4159 20.56 17.9046 21.4535 17.5897C22.347 17.2749 23.2998 17.1645 24.2417 17.2667L33.5625 18.2792C34.6199 18.3952 35.6895 18.243 36.6726 17.8367C37.6557 17.4303 38.5206 16.7829 39.1875 15.9542L45.0542 8.64166C45.6476 7.90137 46.3997 7.30386 47.2551 6.89327C48.1104 6.48269 49.0471 6.26952 49.9958 6.26952C50.9446 6.26952 51.8813 6.48269 52.7366 6.89327C53.5919 7.30386 54.3441 7.90137 54.9375 8.64166L60.8125 15.9542C61.4794 16.7829 62.3443 17.4303 63.3274 17.8367C64.3105 18.243 65.3801 18.3952 66.4375 18.2792L75.7583 17.2667C76.7009 17.1641 77.6545 17.2744 78.5487 17.5896C79.443 17.9047 80.255 18.4166 80.925 19.0875L19.0833 80.9167Z" fill="#FFF9BF"/>
<path d="M45.0583 8.64166C45.6518 7.90137 46.4039 7.30386 47.2592 6.89327C48.1146 6.48269 49.0512 6.26952 50 6.26952C50.9488 6.26952 51.8854 6.48269 52.7408 6.89327C53.5961 7.30386 54.3483 7.90137 54.9417 8.64166L60.8167 15.9542C61.4836 16.7829 62.3485 17.4303 63.3316 17.8367C64.3147 18.243 65.3843 18.3952 66.4417 18.2792L75.7625 17.2667C76.704 17.1651 77.6563 17.276 78.5493 17.5912C79.4423 17.9064 80.2533 18.4178 80.9225 19.0878C81.5917 19.7578 82.1022 20.5694 82.4163 21.4628C82.7304 22.3562 82.8402 23.3086 82.7375 24.25L81.7208 33.5667C81.6058 34.6248 81.7592 35.6949 82.1671 36.678C82.5749 37.6612 83.2239 38.5257 84.0542 39.1917L91.3583 45.0625C92.0986 45.6559 92.6961 46.4081 93.1067 47.2634C93.5173 48.1187 93.7305 49.0554 93.7305 50.0042C93.7305 50.9529 93.5173 51.8896 93.1067 52.7449C92.6961 53.6003 92.0986 54.3524 91.3583 54.9458L84.05 60.8208C83.2204 61.4864 82.5717 62.3503 82.1639 63.3326C81.7561 64.315 81.6023 65.3842 81.7167 66.4417L82.7375 75.7625C82.8381 76.704 82.7266 77.6561 82.4112 78.5489C82.0957 79.4417 81.5844 80.2525 80.9146 80.9219C80.2449 81.5912 79.4338 82.1021 78.5408 82.417C77.6478 82.7319 76.6956 82.8428 75.7542 82.7417L66.4333 81.7292C65.3756 81.6136 64.3057 81.7664 63.3226 82.1735C62.3395 82.5806 61.4748 83.2288 60.8083 84.0583L54.9417 91.3583C54.3492 92.1 53.5973 92.6988 52.7418 93.1103C51.8864 93.5218 50.9493 93.7355 50 93.7355C49.0507 93.7355 48.1136 93.5218 47.2582 93.1103C46.4027 92.6988 45.6508 92.1 45.0583 91.3583L39.1917 84.05C38.5257 83.2197 37.6612 82.5707 36.678 82.1629C35.6949 81.7551 34.6248 81.6016 33.5667 81.7167L24.2458 82.7333C23.3044 82.8354 22.352 82.7251 21.4588 82.4104C20.5656 82.0958 19.7544 81.5849 19.0848 80.9153C18.4151 80.2456 17.9042 79.4344 17.5896 78.5412C17.2749 77.648 17.1646 76.6956 17.2667 75.7542L18.2792 66.4333C18.394 65.3762 18.2408 64.3072 17.8338 63.3249C17.4267 62.3426 16.7789 61.4786 15.95 60.8125L8.64167 54.9458C7.90138 54.3524 7.30387 53.6003 6.89328 52.7449C6.4827 51.8896 6.26953 50.9529 6.26953 50.0042C6.26953 49.0554 6.4827 48.1187 6.89328 47.2634C7.30387 46.4081 7.90138 45.6559 8.64167 45.0625L15.95 39.1917C16.7803 38.5257 17.4293 37.6612 17.8371 36.678C18.2449 35.6949 18.3984 34.6248 18.2833 33.5667L17.2625 24.25C17.1597 23.3082 17.2696 22.3554 17.5839 21.4617C17.8983 20.5679 18.4091 19.7561 19.0788 19.086C19.7485 18.4159 20.56 17.9046 21.4535 17.5897C22.347 17.2749 23.2998 17.1645 24.2417 17.2667L33.5625 18.2792C34.6199 18.3952 35.6895 18.243 36.6726 17.8367C37.6557 17.4303 38.5206 16.7829 39.1875 15.9542L45.0583 8.64166Z" stroke="#191919" stroke-linecap="round" stroke-linejoin="round"/>
<path d="M65.2086 40.5L49.7336 61.125C49.4835 61.4592 49.1646 61.7359 48.7984 61.9362C48.4322 62.1366 48.0272 62.256 47.6109 62.2864C47.1946 62.3168 46.7766 62.2575 46.3851 62.1125C45.9937 61.9675 45.6379 61.7402 45.3419 61.4458L36.0586 52.1542" stroke="#191919" stroke-linecap="round" stroke-linejoin="round"/>
</svg>
